<svg width="50" height="50" viewBox="0 0 50 50" fill="none" xmlns="http://www.w3.org/2000/svg">
<path d="M45 28.1375V26.187C41.6665 23.424 41.6475 19.715 41.6475 19.715V19.2785H36.685V17.775H35.4735V16.2785H40.0785V14.724C37.565 12.641 37.5505 9.0905 37.5505 9.0905V8.5H35.4735V5H33.4735V8.5H29.1575V5H27.1575V8.5H22.8415V5H20.8415V8.5H16.5255V5H14.5255V8.5H12.4485V9.0905C12.4485 9.0905 12.4335 12.641 9.9205 14.724V16.279H14.5255V17.775H13.315V19.2785H8.353V19.715C8.353 19.715 8.3335 23.424 5 26.187V28.137H14.526V29.637H8.8735V36.7135C8.54366 36.7615 8.24204 36.9263 8.0236 37.1781C7.80517 37.4298 7.68447 37.7517 7.6835 38.085V45H19.626V36.553C19.626 33.585 22.032 31.179 25 31.179C27.968 31.179 30.374 33.585 30.374 36.553V45H42.3165V38.085C42.3165 37.4 41.818 36.8325 41.1655 36.7175V29.6375H35.474V28.1375H45ZM33.474 17.775H29.158V16.2785H33.474V17.775ZM27.158 16.2785V17.775H22.842V16.2785H27.158ZM16.526 16.2785H20.842V17.775H16.526V16.2785ZM16.188 39.2755H12.088V36.249C12.088 35.7053 12.304 35.1839 12.6884 34.7994C13.0729 34.415 13.5943 34.199 14.138 34.199C14.6817 34.199 15.2031 34.415 15.5876 34.7994C15.972 35.1839 16.188 35.7053 16.188 36.249V39.2755ZM16.526 29.6375V28.1375H20.842V29.6375H16.526ZM22.842 29.6375V28.1375H27.158V29.6375H22.842ZM37.912 36.249V39.2755H33.812V36.249C33.812 35.7053 34.028 35.1839 34.4124 34.7994C34.7969 34.415 35.3183 34.199 35.862 34.199C36.4057 34.199 36.9271 34.415 37.3116 34.7994C37.696 35.1839 37.912 35.7053 37.912 36.249ZM33.474 29.6375H29.158V28.1375H33.474V29.6375Z" fill="#49B8EA"/>
</svg>
