<svg width="50" height="50" viewBox="0 0 50 50" fill="none" xmlns="http://www.w3.org/2000/svg">
<path fill-rule="evenodd" clip-rule="evenodd" d="M40.6436 11.1998L42.9526 15.1016C43.3033 15.6943 42.9747 16.4205 42.3591 16.5913C42.2867 16.611 42.2199 16.6473 42.1638 16.6972C42.1077 16.7471 42.0639 16.8093 42.0359 16.879C42.0078 16.9486 41.9963 17.0238 42.0021 17.0986C42.0079 17.1735 42.031 17.246 42.0695 17.3104L45.6161 23.3036C46.0165 23.9801 45.5316 24.8304 44.7455 24.8304H44.2764C43.897 24.8304 43.663 25.2409 43.8562 25.5673L48.2797 33.0421C48.68 33.7186 48.1951 34.569 47.409 34.569H32.1369C31.6507 34.569 31.2799 34.2437 31.1623 33.8354H35.3773C37.0616 33.8354 38.1142 31.9894 37.2565 30.5399L35.0018 26.7297L35.6898 25.5672C35.8831 25.2407 35.649 24.8303 35.2696 24.8303H34.8006C34.0145 24.8303 33.5296 23.9799 33.9299 23.3035L37.4764 17.3103C37.5149 17.2459 37.538 17.1734 37.5438 17.0985C37.5497 17.0237 37.5381 16.9485 37.5101 16.8789C37.482 16.8092 37.4382 16.747 37.3822 16.6971C37.3261 16.6472 37.2592 16.6109 37.1868 16.5912C36.5714 16.4204 36.2425 15.6942 36.5933 15.1015L38.9024 11.1997C39.2932 10.5392 40.2528 10.5394 40.6436 11.1998ZM44.7614 48.4375H5.24352C4.67829 48.4375 4.56979 47.6268 5.1151 47.4782C11.6444 45.6972 17.6338 44.0788 24.9999 44.0788C32.1349 44.0788 38.8847 45.8439 44.8897 47.4781C45.4352 47.6266 45.3268 48.4375 44.7615 48.4375H44.7614ZM25.8705 2.05776C25.4797 1.39741 24.5201 1.39741 24.1293 2.05776L20.6307 7.96968C20.4406 8.29106 20.4376 8.66167 20.6225 8.98599C20.8074 9.3103 21.1279 9.49653 21.5013 9.49653H21.699C22.0785 9.49653 22.3125 9.90689 22.1193 10.2334L17.1913 18.561C16.791 19.2375 17.2757 20.0878 18.0619 20.0878H19.434C19.8133 20.0878 20.0473 20.4983 19.8542 20.8248L13.7518 31.1368C13.3515 31.8133 13.8364 32.6636 14.6225 32.6636H35.3775C36.1636 32.6636 36.6484 31.8132 36.2481 31.1368L30.1458 20.8248C29.9526 20.4982 30.1865 20.0878 30.566 20.0878H31.9381C32.7242 20.0878 33.209 19.2375 32.8087 18.561L27.8806 10.2334C27.6874 9.90689 27.9215 9.49653 28.3008 9.49653H28.4985C28.8718 9.49653 29.1924 9.3103 29.3773 8.98599C29.5623 8.66167 29.5592 8.29106 29.3691 7.96968L25.8705 2.05776ZM26.3105 33.8355V42.9261C25.4369 42.9013 24.5628 42.9007 23.6892 42.9243V33.8355H26.3105ZM40.788 35.7409H38.7581V44.6929C39.4362 44.8512 40.1128 45.0156 40.788 45.186V35.7409ZM11.2417 35.7702H9.21178V45.1709C9.88694 44.9981 10.5636 44.8312 11.2417 44.6703V35.7702ZM11.0973 11.2291L13.4063 15.1309C13.757 15.7236 13.4284 16.4498 12.8129 16.6206C12.7404 16.6403 12.6736 16.6766 12.6175 16.7265C12.5614 16.7764 12.5176 16.8386 12.4896 16.9083C12.4615 16.9779 12.45 17.0531 12.4558 17.1279C12.4616 17.2028 12.4847 17.2752 12.5232 17.3397L16.0698 23.3329C16.4702 24.0093 15.9853 24.8597 15.1992 24.8597H14.73C14.3507 24.8597 14.1167 25.2702 14.3098 25.5966L14.9891 26.7445L12.7431 30.5399C11.8853 31.9894 12.9381 33.8354 14.6223 33.8354H18.8452C18.7373 34.2573 18.3604 34.5983 17.8627 34.5983H2.59069C1.80456 34.5983 1.31979 33.7479 1.72009 33.0714L6.14342 25.5965C6.33659 25.2701 6.1026 24.8596 5.72321 24.8596H5.25407C4.46803 24.8596 3.98307 24.0092 4.38346 23.3328L7.93005 17.3396C7.96855 17.2752 7.99162 17.2027 7.99745 17.1278C8.00329 17.053 7.99173 16.9778 7.96368 16.9082C7.93563 16.8385 7.89185 16.7763 7.83577 16.7264C7.77969 16.6765 7.71282 16.6402 7.6404 16.6205C7.02497 16.4497 6.69626 15.7235 7.04694 15.1308L9.35602 11.229C9.74675 10.5685 10.7064 10.5686 11.0972 11.229L11.0973 11.2291Z" fill="#49B8EA"/>
</svg>
