<svg width="50" height="50" viewBox="0 0 50 50" fill="none" xmlns="http://www.w3.org/2000/svg">
<g clip-path="url(#clip0_14793_1004)">
<path d="M50 48.567V43.939C46.8748 43.939 46.8748 46.0809 43.7496 46.0809C40.6244 46.0809 40.6244 43.939 37.4992 43.939C34.3741 43.939 34.3741 46.0809 31.2491 46.0809C28.1241 46.0809 28.1241 43.939 24.9992 43.939C21.8744 43.939 21.8744 46.0809 18.7496 46.0809C15.6247 46.0809 15.6247 43.939 12.4997 43.939C9.37471 43.939 9.37471 46.0809 6.24971 46.0809C3.1249 46.0809 3.1249 43.939 0 43.939V48.567H50Z" fill="#49B8EA"/>
<path d="M20.7237 41.9459C32.3339 40.3134 41.5888 37.8729 41.395 36.495C41.2013 35.1171 31.6323 35.3235 20.0221 36.9561C8.41191 38.5887 -0.842932 41.0291 -0.649178 42.407C-0.455424 43.7849 9.11356 43.5785 20.7237 41.9459Z" fill="#49B8EA"/>
<path d="M23.3487 27.3219L19.9639 27.417C19.6174 27.7024 19.362 28.0829 19.2291 28.5116C19.0961 28.9404 19.0915 29.3986 19.2156 29.8299L21.4784 37.6911C21.83 38.9125 23.105 39.6177 24.3266 39.2661C25.5481 38.9144 26.2532 37.6393 25.9016 36.4178L24.0567 30.0088L25.7244 28.6351L23.3487 27.3219ZM13.5407 25.2087L11.5159 26.2585C11.0606 26.4946 10.6972 26.876 10.4834 27.3421L5.16963 38.9256C4.63965 40.0809 5.14659 41.447 6.30186 41.977C7.46045 42.5085 8.82501 41.9963 9.35323 40.8448L14.337 29.9805L16.9531 28.6242C16.9531 28.6242 16.605 26.8338 16.0594 26.2893C15.4656 25.6969 13.5407 25.2087 13.5407 25.2087Z" fill="#49B8EA"/>
<path d="M21.089 7.0312C22.0845 5.18087 21.3915 2.8739 19.5411 1.87844C17.6908 0.88297 15.3839 1.57597 14.3884 3.4263C13.3929 5.27663 14.0859 7.5836 15.9363 8.57906C17.7866 9.57453 20.0935 8.88152 21.089 7.0312Z" fill="#49B8EA"/>
<path d="M22.9152 7.25035C22.8927 7.2521 22.8921 7.2564 22.9065 7.26255C22.9327 7.24644 22.938 7.24117 22.9152 7.25035ZM38.4756 15.9259C38.9619 14.9968 38.6027 13.8496 37.6735 13.3634L30.684 9.7065C30.4545 9.58646 30.2029 9.51461 29.9446 9.49537L22.9619 9.03931C22.2995 8.99605 21.6348 9.0729 20.9998 9.26617L18.8514 9.91997C17.8509 10.2245 16.968 10.8287 16.3219 11.6511L11.9419 17.2267L5.99733 19.6866C5.02848 20.0876 4.56803 21.198 4.96901 22.1669C5.3691 23.1339 6.47838 23.597 7.44938 23.1954L13.8601 20.5424C14.1656 20.416 14.4328 20.212 14.6352 19.9505L17.5046 16.2446L19.1259 21.6461L25.0961 24.058L28.9314 20.5939L26.6976 13.0618L29.2716 13.253L35.9132 16.7279C36.8455 17.2157 37.9913 16.8517 38.4756 15.9259Z" fill="#49B8EA"/>
<path d="M19.126 21.6465L19.2992 22.2235L13.541 25.2089L16.9255 28.5934C16.9354 28.6033 16.9438 28.6142 16.9534 28.6243L21.1226 26.4628L19.9642 27.4171L25.7247 28.6352L28.0468 26.7252C28.691 26.1953 29.1648 25.4873 29.409 24.6897C29.6532 23.8921 29.6569 23.0402 29.4197 22.2405L28.9314 20.5942L19.126 21.6465Z" fill="#49B8EA"/>
<path d="M42.4393 26.7673C42.411 26.8122 42.3675 26.8454 42.3168 26.8611C42.2661 26.8768 42.2115 26.8738 42.1627 26.8528C42.114 26.8317 42.0744 26.794 42.0511 26.7463C42.0277 26.6987 42.0221 26.6442 42.0353 26.5928C42.6111 24.336 43.9062 20.1829 45.782 19.4652C47.0845 18.9668 47.8335 22.0176 46.247 23.1492C44.8949 24.1135 43.8098 24.607 42.4393 26.7673ZM43.7001 29.8541C43.6482 29.86 43.5958 29.8476 43.5521 29.8189C43.5085 29.7902 43.4763 29.7471 43.4612 29.6971C43.4461 29.6471 43.4491 29.5933 43.4695 29.5453C43.49 29.4972 43.5268 29.4579 43.5733 29.4341C44.8764 28.7709 46.8584 27.9372 47.8255 28.4165C48.5831 28.7918 47.5317 30.3801 46.3752 30.1385C45.505 29.9567 44.8839 29.7168 43.7001 29.8541Z" fill="#49B8EA"/>
</g>
<defs>
<clipPath id="clip0_14793_1004">
<rect width="50" height="50" fill="white"/>
</clipPath>
</defs>
</svg>
