<svg width="50" height="50" viewBox="0 0 50 50" fill="none" xmlns="http://www.w3.org/2000/svg">
<g clip-path="url(#clip0_16122_170)">
<path d="M49.9997 24.9999C49.9997 24.2757 49.4127 23.6886 48.6885 23.6886H46.6253L48.5895 21.7245C49.1016 21.2124 49.1016 20.3821 48.5895 19.8701C48.0774 19.3581 47.2472 19.358 46.7351 19.8701L42.9164 23.6887H40.9755L42.9397 21.7246C43.4518 21.2125 43.4518 20.3822 42.9397 19.8702C42.4275 19.3581 41.5973 19.3581 41.0853 19.8702L37.2667 23.6888H28.1655L34.6011 17.2532H40.0013C40.7255 17.2532 41.3125 16.6662 41.3125 15.942C41.3125 15.2178 40.7255 14.6308 40.0013 14.6308H37.2236L38.5961 13.2583H43.9963C44.7205 13.2583 45.3075 12.6713 45.3075 11.9471C45.3075 11.2229 44.7205 10.6359 43.9963 10.6359H41.2186L42.6776 9.1769C43.1897 8.66479 43.1897 7.83453 42.6776 7.32252C42.1655 6.81041 41.3352 6.81041 40.8232 7.32252L39.3642 8.78149V6.00338C39.3642 5.27917 38.7772 4.69216 38.053 4.69216C37.3288 4.69216 36.7418 5.27917 36.7418 6.00338V11.4036L35.3693 12.7761V9.99848C35.3693 9.27426 34.7823 8.68725 34.0581 8.68725C33.3339 8.68725 32.7469 9.27426 32.7469 9.99848V15.3987L26.3113 21.8343V12.7331L30.1299 8.9145C30.642 8.40239 30.642 7.57212 30.1299 7.06011C29.6177 6.54801 28.7875 6.54801 28.2755 7.06011L26.3113 9.02426V7.08326L30.1299 3.26463C30.642 2.75252 30.642 1.92225 30.1299 1.41025C29.6177 0.898139 28.7875 0.898139 28.2755 1.41025L26.3113 3.37439V1.31122C26.3111 0.587008 25.7241 0 24.9999 0C24.2757 0 23.6886 0.587008 23.6886 1.31122V3.37439L21.7245 1.41025C21.2124 0.898139 20.3822 0.898139 19.8701 1.41025C19.358 1.92235 19.358 2.75262 19.8701 3.26463L23.6887 7.08326V9.02426L21.7246 7.06011C21.2125 6.54801 20.3823 6.54801 19.8702 7.06011C19.3581 7.57222 19.3581 8.40249 19.8702 8.9145L23.6888 12.7331V21.8343L17.2532 15.3987V9.99838C17.2532 9.27417 16.6662 8.68716 15.942 8.68716C15.2178 8.68716 14.6308 9.27417 14.6308 9.99838V12.7761L13.2583 11.4036V6.00329C13.2583 5.27907 12.6713 4.69206 11.9471 4.69206C11.2229 4.69206 10.6359 5.27907 10.6359 6.00329V8.781L9.1767 7.32232C8.6646 6.81021 7.83433 6.81021 7.32232 7.32232C6.81021 7.83443 6.81021 8.6647 7.32232 9.1767L8.7813 10.6357H6.00338C5.27917 10.6357 4.69216 11.2227 4.69216 11.9469C4.69216 12.6711 5.27917 13.2581 6.00338 13.2581H11.4036L12.7761 14.6306H9.99848C9.27426 14.6306 8.68725 15.2176 8.68725 15.9418C8.68725 16.666 9.27426 17.253 9.99848 17.253H15.3987L21.8343 23.6886H12.7331L8.9144 19.87C8.4023 19.3579 7.57212 19.3579 7.06002 19.87C6.54791 20.3821 6.54791 21.2124 7.06002 21.7244L9.02417 23.6885H7.08326L3.26463 19.87C2.75252 19.3579 1.92235 19.3579 1.41025 19.87C0.898139 20.3821 0.898139 21.2124 1.41025 21.7244L3.37439 23.6885H1.31122C0.587008 23.6885 0 24.2756 0 24.9998C0 25.724 0.587008 26.311 1.31122 26.311H3.37449L1.41034 28.2752C0.898237 28.7873 0.898237 29.6176 1.41034 30.1296C1.6664 30.3857 2.00194 30.5137 2.33749 30.5137C2.67303 30.5137 3.00867 30.3857 3.26463 30.1296L7.08326 26.311H9.02426L7.06011 28.2752C6.54801 28.7873 6.54801 29.6176 7.06011 30.1296C7.31617 30.3857 7.65171 30.5137 7.98726 30.5137C8.3228 30.5137 8.65845 30.3857 8.9144 30.1296L12.733 26.311H21.8342L15.3986 32.7466H9.99838C9.27416 32.7466 8.68716 33.3336 8.68716 34.0578C8.68716 34.782 9.27416 35.369 9.99838 35.369H12.7761L11.4036 36.7415H6.00329C5.27907 36.7415 4.69206 37.3285 4.69206 38.0527C4.69206 38.7769 5.27907 39.3639 6.00329 39.3639H8.781L7.32203 40.8229C6.80992 41.335 6.80992 42.1652 7.32203 42.6773C7.57808 42.9333 7.91363 43.0614 8.24917 43.0614C8.58471 43.0614 8.92036 42.9333 9.17631 42.6773L10.6353 41.2183V43.996C10.6353 44.7202 11.2223 45.3073 11.9465 45.3073C12.6707 45.3073 13.2577 44.7202 13.2577 43.996V38.5958L14.6302 37.2233V40.001C14.6302 40.7253 15.2172 41.3123 15.9414 41.3123C16.6656 41.3123 17.2526 40.7253 17.2526 40.001V34.6008L23.6882 28.1652V37.2664L19.8696 41.085C19.3575 41.5971 19.3575 42.4274 19.8696 42.9394C20.3817 43.4515 21.212 43.4515 21.724 42.9394L23.6881 40.9753V42.9162L19.8695 46.7348C19.3574 47.2469 19.3574 48.0772 19.8695 48.5892C19.9911 48.7111 20.1356 48.8078 20.2948 48.8737C20.4539 48.9396 20.6244 48.9735 20.7967 48.9733C21.1323 48.9733 21.4678 48.8452 21.7238 48.5892L23.6879 46.625V48.6882C23.6879 49.4124 24.2751 49.9994 24.9992 49.9994C25.7234 49.9994 26.3104 49.4124 26.3104 48.6882V46.625L28.2746 48.5893C28.7867 49.1014 29.617 49.1014 30.129 48.5893C30.641 48.0772 30.6411 47.247 30.129 46.7349L26.3104 42.9163V40.9753L28.2746 42.9395C28.5307 43.1955 28.8663 43.3236 29.2018 43.3236C29.5372 43.3236 29.873 43.1955 30.1289 42.9395C30.641 42.4274 30.641 41.5972 30.1289 41.0851L26.3103 37.2665V28.1659L32.7459 34.6015V40.0017C32.7459 40.7259 33.3329 41.3129 34.0571 41.3129C34.7813 41.3129 35.3683 40.7259 35.3683 40.0017V37.224L36.7408 38.5965V43.9967C36.7408 44.7209 37.3278 45.3079 38.052 45.3079C38.7762 45.3079 39.3632 44.7209 39.3632 43.9967V41.219L40.8222 42.678C40.9438 42.7999 41.0884 42.8966 41.2475 42.9625C41.4066 43.0284 41.5771 43.0623 41.7494 43.0621C42.085 43.0621 42.4206 42.934 42.6765 42.678C43.1886 42.1659 43.1886 41.3357 42.6765 40.8236L41.2175 39.3646H43.9952C44.7195 39.3646 45.3065 38.7776 45.3065 38.0534C45.3065 37.3292 44.7195 36.7422 43.9952 36.7422H38.595L37.2225 35.3697H40.0003C40.7245 35.3697 41.3115 34.7827 41.3115 34.0585C41.3115 33.3343 40.7245 32.7473 40.0003 32.7473H34.6L28.1644 26.3117H37.2656L41.0842 30.1303C41.3403 30.3863 41.6759 30.5144 42.0114 30.5144C42.3468 30.5144 42.6826 30.3863 42.9385 30.1303C43.4506 29.6182 43.4506 28.788 42.9385 28.2759L40.9743 26.3117H42.9153L46.7339 30.1303C46.8555 30.2522 47 30.3489 47.1591 30.4148C47.3183 30.4808 47.4888 30.5146 47.661 30.5144C47.9966 30.5144 48.3322 30.3863 48.5882 30.1303C49.1003 29.6182 49.1003 28.788 48.5882 28.2759L46.6239 26.3117H48.6871C49.4126 26.3111 49.9997 25.7241 49.9997 24.9999Z" fill="#49B8EA"/>
</g>
<defs>
<clipPath id="clip0_16122_170">
<rect width="50" height="50" fill="white"/>
</clipPath>
</defs>
</svg>
